<?xml version="1.0" encoding="UTF-8" standalone="no"?><svg xmlns="http://www.w3.org/2000/svg" xmlns:xlink="http://www.w3.org/1999/xlink" contentScriptType="application/ecmascript" contentStyleType="text/css" height="378px" preserveAspectRatio="none" style="width:692px;height:378px;" version="1.1" viewBox="0 0 692 378" width="692px" zoomAndPan="magnify"><defs><filter height="300%" id="f9tw3b7690nci" width="300%" x="-1" y="-1"><feGaussianBlur result="blurOut" stdDeviation="2.0"/><feColorMatrix in="blurOut" result="blurOut2" type="matrix" values="0 0 0 0 0 0 0 0 0 0 0 0 0 0 0 0 0 0 .4 0"/><feOffset dx="4.0" dy="4.0" in="blurOut2" result="blurOut3"/><feBlend in="SourceGraphic" in2="blurOut3" mode="normal"/></filter></defs><g><rect fill="#FFFFFF" filter="url(#f9tw3b7690nci)" height="29.1328" style="stroke: #A80036; stroke-width: 1.0;" width="10" x="322" y="71.4297"/><rect fill="#FFFFFF" filter="url(#f9tw3b7690nci)" height="63.2656" style="stroke: #A80036; stroke-width: 1.0;" width="10" x="322" y="137.6953"/><rect fill="#FFFFFF" filter="url(#f9tw3b7690nci)" height="87.3984" style="stroke: #A80036; stroke-width: 1.0;" width="10" x="322" y="230.0938"/><line style="stroke: #A80036; stroke-width: 1.0; stroke-dasharray: 5.0,5.0;" x1="33" x2="33" y1="40.2969" y2="335.4922"/><line style="stroke: #A80036; stroke-width: 1.0; stroke-dasharray: 5.0,5.0;" x1="327" x2="327" y1="40.2969" y2="335.4922"/><line style="stroke: #A80036; stroke-width: 1.0; stroke-dasharray: 5.0,5.0;" x1="606" x2="606" y1="40.2969" y2="335.4922"/><rect fill="#FEFECE" filter="url(#f9tw3b7690nci)" height="30.2969" style="stroke: #A80036; stroke-width: 1.5;" width="52" x="5" y="5"/><text fill="#000000" font-family="sans-serif" font-size="14" lengthAdjust="spacingAndGlyphs" textLength="38" x="12" y="24.9951">Slack</text><rect fill="#FEFECE" filter="url(#f9tw3b7690nci)" height="30.2969" style="stroke: #A80036; stroke-width: 1.5;" width="52" x="5" y="334.4922"/><text fill="#000000" font-family="sans-serif" font-size="14" lengthAdjust="spacingAndGlyphs" textLength="38" x="12" y="354.4873">Slack</text><rect fill="#FEFECE" filter="url(#f9tw3b7690nci)" height="30.2969" style="stroke: #A80036; stroke-width: 1.5;" width="108" x="271" y="5"/><text fill="#000000" font-family="sans-serif" font-size="14" lengthAdjust="spacingAndGlyphs" textLength="94" x="278" y="24.9951">AWS Lambda</text><rect fill="#FEFECE" filter="url(#f9tw3b7690nci)" height="30.2969" style="stroke: #A80036; stroke-width: 1.5;" width="108" x="271" y="334.4922"/><text fill="#000000" font-family="sans-serif" font-size="14" lengthAdjust="spacingAndGlyphs" textLength="94" x="278" y="354.4873">AWS Lambda</text><rect fill="#FEFECE" filter="url(#f9tw3b7690nci)" height="30.2969" style="stroke: #A80036; stroke-width: 1.5;" width="148" x="530" y="5"/><text fill="#000000" font-family="sans-serif" font-size="14" lengthAdjust="spacingAndGlyphs" textLength="134" x="537" y="24.9951">Backend Database</text><rect fill="#FEFECE" filter="url(#f9tw3b7690nci)" height="30.2969" style="stroke: #A80036; stroke-width: 1.5;" width="148" x="530" y="334.4922"/><text fill="#000000" font-family="sans-serif" font-size="14" lengthAdjust="spacingAndGlyphs" textLength="134" x="537" y="354.4873">Backend Database</text><rect fill="#FFFFFF" filter="url(#f9tw3b7690nci)" height="29.1328" style="stroke: #A80036; stroke-width: 1.0;" width="10" x="322" y="71.4297"/><rect fill="#FFFFFF" filter="url(#f9tw3b7690nci)" height="63.2656" style="stroke: #A80036; stroke-width: 1.0;" width="10" x="322" y="137.6953"/><rect fill="#FFFFFF" filter="url(#f9tw3b7690nci)" height="87.3984" style="stroke: #A80036; stroke-width: 1.0;" width="10" x="322" y="230.0938"/><polygon fill="#A80036" points="310,67.4297,320,71.4297,310,75.4297,314,71.4297" style="stroke: #A80036; stroke-width: 1.0;"/><line style="stroke: #A80036; stroke-width: 1.0;" x1="33" x2="316" y1="71.4297" y2="71.4297"/><text fill="#000000" font-family="sans-serif" font-size="13" lengthAdjust="spacingAndGlyphs" textLength="212" x="40" y="66.3638">Slash command requesting N IDs</text><polygon fill="#A80036" points="44,96.5625,34,100.5625,44,104.5625,40,100.5625" style="stroke: #A80036; stroke-width: 1.0;"/><line style="stroke: #A80036; stroke-width: 1.0;" x1="38" x2="326" y1="100.5625" y2="100.5625"/><text fill="#000000" font-family="sans-serif" font-size="13" lengthAdjust="spacingAndGlyphs" textLength="183" x="50" y="95.4966">Initial post to confirm receipt</text><line style="stroke: #A80036; stroke-width: 1.0;" x1="327" x2="374" y1="124.6953" y2="124.6953"/><line style="stroke: #A80036; stroke-width: 1.0;" x1="374" x2="374" y1="124.6953" y2="137.6953"/><line style="stroke: #A80036; stroke-width: 1.0;" x1="333" x2="374" y1="137.6953" y2="137.6953"/><polygon fill="#A80036" points="343,133.6953,333,137.6953,343,141.6953,339,137.6953" style="stroke: #A80036; stroke-width: 1.0;"/><text fill="#000000" font-family="sans-serif" font-size="13" lengthAdjust="spacingAndGlyphs" textLength="265" x="339" y="119.6294">Self Call (returning to slack ends process)</text><polygon fill="#A80036" points="594,167.8281,604,171.8281,594,175.8281,598,171.8281" style="stroke: #A80036; stroke-width: 1.0;"/><line style="stroke: #A80036; stroke-width: 1.0;" x1="332" x2="600" y1="171.8281" y2="171.8281"/><text fill="#000000" font-family="sans-serif" font-size="13" lengthAdjust="spacingAndGlyphs" textLength="26" x="339" y="166.7622">GET</text><polygon fill="#A80036" points="44,196.9609,34,200.9609,44,204.9609,40,200.9609" style="stroke: #A80036; stroke-width: 1.0;"/><line style="stroke: #A80036; stroke-width: 1.0;" x1="38" x2="326" y1="200.9609" y2="200.9609"/><text fill="#000000" font-family="sans-serif" font-size="13" lengthAdjust="spacingAndGlyphs" textLength="187" x="50" y="195.895">Post to get user confirmation</text><polygon fill="#A80036" points="310,226.0938,320,230.0938,310,234.0938,314,230.0938" style="stroke: #A80036; stroke-width: 1.0;"/><line style="stroke: #A80036; stroke-width: 1.0;" x1="33" x2="316" y1="230.0938" y2="230.0938"/><text fill="#000000" font-family="sans-serif" font-size="13" lengthAdjust="spacingAndGlyphs" textLength="270" x="40" y="225.0278">Confirm is clicked, triggering new instance</text><polygon fill="#A80036" points="594,255.2266,604,259.2266,594,263.2266,598,259.2266" style="stroke: #A80036; stroke-width: 1.0;"/><line style="stroke: #A80036; stroke-width: 1.0;" x1="332" x2="600" y1="259.2266" y2="259.2266"/><text fill="#000000" font-family="sans-serif" font-size="13" lengthAdjust="spacingAndGlyphs" textLength="26" x="339" y="254.1606">GET</text><polygon fill="#A80036" points="594,284.3594,604,288.3594,594,292.3594,598,288.3594" style="stroke: #A80036; stroke-width: 1.0;"/><line style="stroke: #A80036; stroke-width: 1.0;" x1="332" x2="600" y1="288.3594" y2="288.3594"/><text fill="#000000" font-family="sans-serif" font-size="13" lengthAdjust="spacingAndGlyphs" textLength="118" x="339" y="283.2935">POST with new ids</text><polygon fill="#A80036" points="44,313.4922,34,317.4922,44,321.4922,40,317.4922" style="stroke: #A80036; stroke-width: 1.0;"/><line style="stroke: #A80036; stroke-width: 1.0;" x1="38" x2="326" y1="317.4922" y2="317.4922"/><text fill="#000000" font-family="sans-serif" font-size="13" lengthAdjust="spacingAndGlyphs" textLength="217" x="50" y="312.4263">Post to notify user task is finished</text><!--MD5=[88e96051702aedf81d258e53247bb79c]
@startuml
Slack -> "AWS Lambda": Slash command requesting N IDs
activate "AWS Lambda"
Slack <- "AWS Lambda": Initial post to confirm receipt
deactivate "AWS Lambda"
"AWS Lambda" -> "AWS Lambda": Self Call (returning to slack ends process)
activate "AWS Lambda"
"AWS Lambda" -> "Backend Database": GET
"AWS Lambda" -> Slack: Post to get user confirmation
deactivate "AWS Lambda"
Slack -> "AWS Lambda": Confirm is clicked, triggering new instance
activate "AWS Lambda"
"AWS Lambda" -> "Backend Database": GET
"AWS Lambda" -> "Backend Database": POST with new ids
"AWS Lambda" -> Slack: Post to notify user task is finished
deactivate "AWS Lambda"
@enduml

PlantUML version 1.2020.20beta13(Unknown compile time)
(GPL source distribution)
Java Runtime: Java(TM) SE Runtime Environment
JVM: Java HotSpot(TM) 64-Bit Server VM
Default Encoding: UTF-8
Language: en
Country: US
--></g></svg>